HIERARCHY
ROOT joint_Root
{
	OFFSET 0.0 0.0 0.0
	CHANNELS 6 Xposition Yposition Zposition Zrotation Xrotation Yrotation 
	JOINT Hips
	{
		OFFSET -0.726466 93.3139 -2.00062
		CHANNELS 6 Xposition Yposition Zposition Zrotation Xrotation Yrotation 
		JOINT Spine
		{
			OFFSET 15.7357 0.0 0.0
			CHANNELS 6 Xposition Yposition Zposition Zrotation Xrotation Yrotation 
			JOINT Chest
			{
				OFFSET 8.98455 -0.406207 0.0
				CHANNELS 6 Xposition Yposition Zposition Zrotation Xrotation Yrotation 
				JOINT Neck
				{
					OFFSET 16.3773 0.0 0.0
					CHANNELS 6 Xposition Yposition Zposition Zrotation Xrotation Yrotation 
					JOINT Head
					{
						OFFSET 6.45672 0.0 0.0
						CHANNELS 6 Xposition Yposition Zposition Zrotation Xrotation Yrotation 
						End Site
						{
							OFFSET 0.0 0.0 0.0
						}
					}
				}
				JOINT Shoulder_L
				{
					OFFSET 12.9942 -0.242716 4.98039
					CHANNELS 6 Xposition Yposition Zposition Zrotation Xrotation Yrotation 
					JOINT UpperArm_L
					{
						OFFSET 5.34809 0.0 0.0
						CHANNELS 6 Xposition Yposition Zposition Zrotation Xrotation Yrotation 
						JOINT LowerArm_L
						{
							OFFSET 24.3286 1.87007e-05 0.0
							CHANNELS 6 Xposition Yposition Zposition Zrotation Xrotation Yrotation 
							JOINT Hand_L
							{
								OFFSET 22.2916 0.0 0.0
								CHANNELS 6 Xposition Yposition Zposition Zrotation Xrotation Yrotation 
								End Site
								{
									OFFSET 0.0 0.0 0.0
								}
							}
						}
					}
				}
				JOINT Shoulder_R
				{
					OFFSET 12.9945 -0.242716 -4.98039
					CHANNELS 6 Xposition Yposition Zposition Zrotation Xrotation Yrotation 
					JOINT UpperArm_R
					{
						OFFSET -5.34813 0.0 0.0
						CHANNELS 6 Xposition Yposition Zposition Zrotation Xrotation Yrotation 
						JOINT LowerArm_R
						{
							OFFSET -24.3289 0.000322201 0.0
							CHANNELS 6 Xposition Yposition Zposition Zrotation Xrotation Yrotation 
							JOINT Hand_R
							{
								OFFSET -22.2915 -0.000108084 0.0
								CHANNELS 6 Xposition Yposition Zposition Zrotation Xrotation Yrotation 
								End Site
								{
									OFFSET 0.0 0.0 0.0
								}
							}
						}
					}
				}
			}
		}
		JOINT UpperLeg_L
		{
			OFFSET -2.19248 -6.46944 0.0
			CHANNELS 6 Xposition Yposition Zposition Zrotation Xrotation Yrotation 
			JOINT LowerLeg_L
			{
				OFFSET 39.0811 0.0 -1.23785e-05
				CHANNELS 6 Xposition Yposition Zposition Zrotation Xrotation Yrotation 
				JOINT Foot_L
				{
					OFFSET 40.9854 0.0 -1.26872e-05
					CHANNELS 6 Xposition Yposition Zposition Zrotation Xrotation Yrotation 
					JOINT Toes_L
					{
						OFFSET 11.7543 0.0 0.0
						CHANNELS 6 Xposition Yposition Zposition Zrotation Xrotation Yrotation 
						End Site
						{
							OFFSET 0.0 0.0 0.0
						}
					}
				}
			}
		}
		JOINT UpperLeg_R
		{
			OFFSET -2.19251 6.46944 0.0
			CHANNELS 6 Xposition Yposition Zposition Zrotation Xrotation Yrotation 
			JOINT LowerLeg_R
			{
				OFFSET -39.0811 -0.00228153 -0.0401928
				CHANNELS 6 Xposition Yposition Zposition Zrotation Xrotation Yrotation 
				JOINT Foot_R
				{
					OFFSET -40.9854 0.0 0.0
					CHANNELS 6 Xposition Yposition Zposition Zrotation Xrotation Yrotation 
					JOINT Toes_R
					{
						OFFSET -11.7543 0.0 0.0
						CHANNELS 6 Xposition Yposition Zposition Zrotation Xrotation Yrotation 
						End Site
						{
							OFFSET 0.0 0.0 0.0
						}
					}
				}
			}
		}
	}
}
MOTION
Frames:	9
Frame Time:	0.0333333
0.000000 0.000000 0.000000 0.000000 0.000000 -0.000000 -0.781413 92.352700 -1.724350 88.121600 -1.115830 3.890020 15.735700 0.000005 -0.000001 83.622200 85.257100 -82.848900 8.984550 -0.406207 -0.000000 1.669210 -1.094260 1.561120 16.377300 -0.000001 -0.000001 2.399440 -2.534710 0.126861 6.456720 -0.000001 -0.000000 4.529710 -2.570050 -0.992659 12.994200 -0.242716 4.980390 -90.316300 1.008020 -72.578000 5.348090 -0.000007 -0.000001 -67.123300 39.051300 -14.903500 24.328600 0.000019 0.000005 1.505070 3.518450 -23.175800 22.291600 -0.000001 0.000005 5.704300 5.474740 -5.550360 12.994500 -0.242716 -4.980390 88.211400 5.879190 -73.045800 -5.348130 -0.000001 -0.000004 -64.692600 39.987900 -16.254400 -24.328900 0.000322 -0.000009 1.750670 6.124780 -15.994400 -22.291500 -0.000108 -0.000004 6.512890 5.386910 -2.516670 -2.192480 -6.469440 -0.000000 -175.603000 -7.353360 -3.303280 39.081100 -0.000007 -0.000012 -0.097954 0.231868 22.902000 40.985400 -0.000006 -0.000013 -0.297629 2.998330 -65.855300 11.754300 -0.000000 0.000003 -0.000030 -0.000358 -16.591500 -2.192510 6.469440 -0.000001 179.699000 15.227800 179.889000 -39.081100 -0.002282 -0.040193 -0.027546 0.088254 19.278600 -40.985400 0.000008 0.000006 3.736700 6.717390 -65.731200 -11.754300 -0.000006 -0.000006 -0.005436 -0.065624 -19.243500
0.000000 0.000000 0.000000 0.000000 0.000000 -0.000000 -0.788615 92.353400 -1.746050 88.127300 -1.124430 3.844640 15.735700 0.000005 -0.000001 83.777300 85.290100 -82.986200 8.984550 -0.406207 -0.000000 1.606430 -1.063010 1.595670 16.377300 -0.000001 -0.000001 2.295150 -2.495010 0.188712 6.456720 -0.000001 -0.000000 4.553300 -2.595590 -1.109010 12.994200 -0.242716 4.980390 -90.371600 1.167400 -72.340600 5.348090 -0.000007 -0.000001 -66.935900 36.065300 -15.208600 24.328600 0.000019 0.000005 3.045580 6.773540 -24.273300 22.291600 -0.000001 0.000005 5.009670 5.490200 -6.142770 12.994500 -0.242716 -4.980390 88.231000 5.823160 -73.069100 -5.348130 -0.000001 -0.000004 -64.908300 39.665900 -16.099600 -24.328900 0.000322 -0.000009 1.738490 6.103660 -15.940700 -22.291500 -0.000108 -0.000004 6.645210 5.386610 -2.507070 -2.192480 -6.469440 -0.000000 -175.613000 -7.374280 -3.369960 39.081100 -0.000007 -0.000012 -0.096471 0.228298 22.907400 40.985400 -0.000006 -0.000013 -0.300554 2.995400 -65.838400 11.754300 -0.000000 0.000003 -0.000030 -0.000357 -16.591500 -2.192510 6.469440 -0.000001 179.696000 15.292300 179.826000 -39.081100 -0.002282 -0.040193 -0.030571 0.096956 19.268700 -40.985400 0.000008 0.000006 3.605770 6.804000 -65.687100 -11.754300 -0.000006 -0.000006 -0.005479 -0.066026 -19.259900
0.000000 0.000000 0.000000 0.000000 0.000000 -0.000000 -0.819546 92.359700 -1.785300 88.112200 -1.034870 3.819440 15.735700 0.000005 -0.000001 84.455100 85.325000 -83.647000 8.984550 -0.406207 -0.000000 1.547650 -0.946808 1.627670 16.377300 -0.000001 -0.000001 2.221780 -2.478600 0.184540 6.456720 -0.000001 -0.000000 4.536990 -2.734000 -1.051940 12.994200 -0.242716 4.980390 -90.425700 1.318500 -72.105900 5.348090 -0.000007 -0.000001 -65.866000 31.724200 -16.310400 24.328600 0.000019 0.000005 3.961460 7.951380 -26.593100 22.291600 -0.000001 0.000005 6.607650 5.500200 -6.534450 12.994500 -0.242716 -4.980390 88.259000 5.726390 -73.058100 -5.348130 -0.000001 -0.000004 -65.210900 39.391500 -15.857700 -24.328900 0.000322 -0.000009 1.738560 6.113050 -15.918200 -22.291500 -0.000108 -0.000004 6.632960 5.386330 -2.498460 -2.192480 -6.469440 -0.000000 -175.596000 -7.225360 -3.434890 39.081100 -0.000007 -0.000012 -0.097431 0.230696 22.896100 40.985400 -0.000006 -0.000013 -0.336637 2.933040 -65.792900 11.754300 -0.000000 0.000003 -0.000028 -0.000339 -16.590800 -2.192510 6.469440 -0.000001 179.738000 15.388300 179.801000 -39.081100 -0.002282 -0.040193 -0.030221 0.096177 19.227500 -40.985400 0.000008 0.000006 3.654960 6.814530 -65.657200 -11.754300 -0.000006 -0.000006 -0.005544 -0.066635 -19.284700
0.000000 0.000000 0.000000 0.000000 0.000000 -0.000000 -0.899010 92.367500 -1.851370 88.132900 -0.815548 3.832330 15.735700 0.000005 -0.000001 84.966000 85.339400 -84.165500 8.984550 -0.406207 -0.000000 1.525930 -0.861063 1.611050 16.377300 -0.000001 -0.000001 2.148620 -2.483870 0.147646 6.456720 -0.000001 -0.000000 4.495780 -2.935550 -0.981684 12.994200 -0.242716 4.980390 -90.465300 1.421190 -71.870200 5.348090 -0.000007 -0.000001 -63.994700 26.048200 -18.371100 24.328600 0.000019 0.000005 3.873440 6.733540 -30.009300 22.291600 -0.000001 0.000005 8.746290 5.515620 -7.170170 12.994500 -0.242716 -4.980390 88.290600 5.639290 -73.106000 -5.348130 -0.000001 -0.000004 -65.440900 39.331000 -15.720700 -24.328900 0.000322 -0.000009 1.741390 6.151910 -15.847500 -22.291500 -0.000108 -0.000004 6.513220 5.384520 -2.440910 -2.192480 -6.469440 -0.000000 -175.571000 -7.068010 -3.479660 39.081100 -0.000007 -0.000012 -0.098208 0.233009 22.854300 40.985400 -0.000006 -0.000013 -0.372964 3.027510 -65.703200 11.754300 -0.000000 0.000003 -0.000031 -0.000376 -16.592200 -2.192510 6.469440 -0.000001 179.768000 15.568800 179.800000 -39.081100 -0.002282 -0.040193 -0.029466 0.094127 19.205500 -40.985400 0.000008 0.000006 3.718510 6.759370 -65.637100 -11.754300 -0.000006 -0.000006 -0.005530 -0.066507 -19.279500
0.000000 0.000000 0.000000 0.000000 0.000000 -0.000000 -1.011720 92.368600 -1.915930 88.143900 -0.510775 3.864540 15.735700 0.000005 -0.000001 85.419200 85.359300 -84.624200 8.984550 -0.406207 -0.000000 1.491750 -0.784379 1.598970 16.377300 -0.000001 -0.000001 2.126580 -2.468760 0.070397 6.456720 -0.000001 -0.000000 4.467460 -3.170400 -0.815966 12.994200 -0.242716 4.980390 -90.427700 1.294340 -71.714700 5.348090 -0.000007 -0.000001 -61.776800 19.816500 -21.353500 24.328600 0.000019 0.000005 3.676180 5.430090 -34.172000 22.291600 -0.000001 0.000005 11.100400 5.539680 -8.217730 12.994500 -0.242716 -4.980390 88.301900 5.608240 -73.124300 -5.348130 -0.000001 -0.000004 -65.521200 39.425800 -15.653000 -24.328900 0.000322 -0.000009 1.744770 6.210720 -15.734400 -22.291500 -0.000108 -0.000004 6.614310 5.386880 -2.515880 -2.192480 -6.469440 -0.000000 -175.503000 -6.954010 -3.554860 39.081100 -0.000007 -0.000012 -0.098900 0.234448 22.872100 40.985400 -0.000006 -0.000013 -0.413031 3.212930 -65.623200 11.754300 -0.000000 0.000003 -0.000031 -0.000368 -16.591900 -2.192510 6.469440 -0.000001 179.825000 15.839500 179.802000 -39.081100 -0.002282 -0.040193 -0.029299 0.093534 19.227200 -40.985400 0.000008 0.000006 3.827440 6.671130 -65.651300 -11.754300 -0.000006 -0.000006 -0.005456 -0.065810 -19.251100
0.000000 0.000000 0.000000 0.000000 0.000000 -0.000000 -1.135420 92.369600 -1.978900 88.131900 -0.176489 3.922010 15.735700 0.000005 -0.000001 85.511100 85.373300 -84.703700 8.984550 -0.406207 -0.000000 1.464960 -0.768246 1.623170 16.377300 -0.000001 -0.000001 2.137880 -2.514160 0.039698 6.456720 -0.000001 -0.000000 4.427390 -3.284280 -0.648533 12.994200 -0.242716 4.980390 -90.344800 1.044830 -71.735700 5.348090 -0.000007 -0.000001 -59.500300 13.234300 -24.884400 24.328600 0.000019 0.000005 4.090180 5.060110 -39.036600 22.291600 -0.000001 0.000005 13.907200 5.554180 -8.897910 12.994500 -0.242716 -4.980390 88.291200 5.630780 -73.088000 -5.348130 -0.000001 -0.000004 -65.484800 39.389700 -15.714000 -24.328900 0.000322 -0.000009 1.780730 6.381470 -15.635800 -22.291500 -0.000108 -0.000004 6.742100 5.388860 -2.578610 -2.192480 -6.469440 -0.000000 -175.410000 -6.766770 -3.603440 39.081100 -0.000007 -0.000012 -0.098755 0.233808 22.898100 40.985400 -0.000006 -0.000013 -0.460722 3.388790 -65.556300 11.754300 -0.000000 0.000003 -0.000032 -0.000384 -16.592500 -2.192510 6.469440 -0.000001 179.908000 16.119300 179.842000 -39.081100 -0.002282 -0.040193 -0.027538 0.088516 19.220700 -40.985400 0.000008 0.000006 3.938920 6.606180 -65.654800 -11.754300 -0.000006 -0.000006 -0.005497 -0.066195 -19.266800
0.000000 0.000000 0.000000 0.000000 0.000000 -0.000000 -1.256470 92.372100 -2.030040 88.169400 0.080599 4.000060 15.735700 0.000005 -0.000001 85.292900 85.371400 -84.492900 8.984550 -0.406207 -0.000000 1.466210 -0.803239 1.608920 16.377300 -0.000001 -0.000001 2.055590 -2.562990 0.103016 6.456720 -0.000001 -0.000000 4.455500 -3.270260 -0.351925 12.994200 -0.242716 4.980390 -90.231600 0.702065 -71.741600 5.348090 -0.000007 -0.000001 -57.454900 6.459520 -28.651200 24.328600 0.000019 0.000005 4.772710 4.857040 -44.594700 22.291600 -0.000001 0.000005 16.457300 5.563040 -9.328750 12.994500 -0.242716 -4.980390 88.258800 5.721790 -73.043200 -5.348130 -0.000001 -0.000004 -65.296500 39.312800 -15.901500 -24.328900 0.000322 -0.000009 1.771510 6.348190 -15.636000 -22.291500 -0.000108 -0.000004 6.859840 5.388630 -2.571360 -2.192480 -6.469440 -0.000000 -175.353000 -6.618810 -3.581520 39.081100 -0.000007 -0.000012 -0.101155 0.239945 22.859200 40.985400 -0.000006 -0.000013 -0.529539 3.518410 -65.468200 11.754300 -0.000000 0.000003 -0.000024 -0.000299 -16.589300 -2.192510 6.469440 -0.000001 179.936000 16.338100 179.903000 -39.081100 -0.002282 -0.040193 -0.026463 0.085372 19.233400 -40.985400 0.000008 0.000006 4.024590 6.534200 -65.670600 -11.754300 -0.000006 -0.000006 -0.005388 -0.065171 -19.225000
0.000000 0.000000 0.000000 0.000000 0.000000 -0.000000 -1.353220 92.375800 -2.064480 88.146500 0.055775 3.991660 15.735700 0.000005 -0.000001 85.086700 85.389100 -84.262400 8.984550 -0.406207 -0.000000 1.428650 -0.835016 1.657510 16.377300 -0.000001 -0.000001 1.952410 -2.568690 0.241657 6.456720 -0.000001 -0.000000 4.332410 -3.182160 0.024213 12.994200 -0.242716 4.980390 -90.099100 0.298877 -71.664900 5.348090 -0.000007 -0.000001 -55.952400 -0.464684 -32.454400 24.328600 0.000019 0.000005 5.052760 4.182150 -50.486600 22.291600 -0.000001 0.000005 19.112000 5.576890 -10.036200 12.994500 -0.242716 -4.980390 88.205200 5.861600 -72.942300 -5.348130 -0.000001 -0.000004 -64.978800 39.087500 -16.221700 -24.328900 0.000322 -0.000009 1.796310 6.367520 -15.798500 -22.291500 -0.000108 -0.000004 6.885910 5.386770 -2.512180 -2.192480 -6.469440 -0.000000 -175.271000 -6.622580 -3.607820 39.081100 -0.000007 -0.000012 -0.101299 0.240415 22.848100 40.985400 -0.000006 -0.000013 -0.590470 3.528420 -65.431100 11.754300 -0.000000 0.000003 -0.000030 -0.000359 -16.591600 -2.192510 6.469440 -0.000001 -179.952000 16.357400 179.870000 -39.081100 -0.002282 -0.040193 -0.023885 0.078059 19.216400 -40.985400 0.000008 0.000006 4.165670 6.507160 -65.661000 -11.754300 -0.000006 -0.000006 -0.005441 -0.065670 -19.245400
0.000000 0.000000 0.000000 0.000000 0.000000 -0.000000 -1.418720 92.373500 -2.087980 88.123500 -0.115714 3.957220 15.735700 0.000005 -0.000001 84.779800 85.418600 -83.922900 8.984550 -0.406207 -0.000000 1.366150 -0.881114 1.722840 16.377300 -0.000001 -0.000001 1.869380 -2.553470 0.375681 6.456720 -0.000001 -0.000000 4.161610 -3.107270 0.580004 12.994200 -0.242716 4.980390 -89.888000 -0.338130 -71.671700 5.348090 -0.000007 -0.000001 -55.231100 -7.490240 -36.163100 24.328600 0.000019 0.000005 5.341770 3.549070 -56.498200 22.291600 -0.000001 0.000005 21.093000 5.585250 -10.489100 12.994500 -0.242716 -4.980390 88.154000 5.986850 -72.828400 -5.348130 -0.000001 -0.000004 -64.654600 38.899200 -16.522300 -24.328900 0.000322 -0.000009 1.797760 6.262760 -16.060500 -22.291500 -0.000108 -0.000004 6.985190 5.387480 -2.535030 -2.192480 -6.469440 -0.000000 -175.198000 -6.693890 -3.645130 39.081100 -0.000007 -0.000012 -0.103587 0.245604 22.868400 40.985400 -0.000006 -0.000013 -0.659846 3.446890 -65.431300 11.754300 -0.000000 0.000003 -0.000029 -0.000347 -16.591100 -2.192510 6.469440 -0.000001 -179.871000 16.256600 179.798000 -39.081100 -0.002282 -0.040193 -0.025138 0.081570 19.234500 -40.985400 0.000008 0.000006 4.213740 6.594450 -65.656600 -11.754300 -0.000006 -0.000006 -0.005608 -0.067233 -19.309100
